<svg version="1.1" xmlns="http://www.w3.org/2000/svg" style="display: block;" viewBox="0 0 2048 2048" width="1512" height="1512" preserveAspectRatio="none">
<path transform="translate(0,0)" fill="rgb(0,0,0)" d="M 1019.21 249.39 C 1027.37 248.546 1041.63 249.317 1050.43 249.058 C 1082.01 248.127 1107.32 249.657 1138.77 253.349 C 1344.32 277.437 1531.94 382.009 1660.54 544.159 C 1694.15 586.167 1723.33 631.536 1747.61 679.541 C 1750.77 685.815 1757.42 697.704 1757.22 704.971 C 1757.13 708.044 1747.72 709.915 1744.95 710.841 C 1714.88 720.906 1683.02 716.979 1652.86 709.531 C 1590.72 693.891 1551.86 641.136 1511.36 595.893 C 1495.32 577.974 1479.62 562.753 1461.12 547.209 C 1407.24 501.448 1346.23 464.83 1280.5 438.809 C 1129.09 379.035 950.559 384.183 801.643 449.229 C 649.859 516.069 530.615 640.149 469.858 794.469 C 408.904 950.093 411.976 1123.51 478.402 1276.88 C 547.49 1433.53 676.552 1555.91 836.655 1616.57 C 991.147 1676.26 1162.32 1663.37 1312.37 1596.91 C 1372.8 1569.47 1451.77 1512.94 1497.95 1465.6 C 1515.22 1448.05 1531.22 1429.31 1545.84 1409.51 C 1589.09 1350.34 1615.41 1303.4 1693.47 1286.75 C 1711.3 1282.95 1749.16 1278.1 1765.01 1289.17 C 1767.25 1290.74 1768.36 1292.46 1768.81 1295.18 C 1773.48 1322.83 1714.05 1422.29 1696.97 1448.41 C 1685.51 1465.63 1673.39 1482.4 1660.64 1498.68 C 1535.05 1661.19 1350.11 1767.22 1146.41 1793.48 C 947.468 1818.06 746.811 1763.76 587.421 1642.2 C 418.533 1510.76 311.009 1331.3 284.476 1117.58 C 259.874 914.839 316.622 710.615 442.291 549.634 C 561 397.648 716.16 303.051 904.776 264.766 C 929.682 259.909 954.765 256.01 979.97 253.078 C 993.166 251.618 1005.58 251.058 1019.21 249.39 z"/>
<path transform="translate(0,0)" fill="rgb(0,0,0)" d="M 1018.65 452.391 C 1026.68 451.181 1047.18 451.494 1055.79 451.521 C 1130.98 451.831 1205.36 466.947 1274.7 496.007 C 1355.56 530.389 1427.63 582.56 1485.54 648.639 C 1492.83 657.053 1510.44 678.577 1514.38 688.143 C 1505.07 706.146 1484.87 724.146 1466.61 732.483 C 1389.62 767.62 1351.79 711.736 1295.21 672.014 C 1262.51 649.056 1230.92 634.018 1193.77 620.967 C 1087.11 583.845 970.092 590.447 868.284 639.329 C 655.997 741.65 562.876 998.862 666.518 1212.1 C 717.137 1317.03 807.78 1397.23 918.093 1434.69 C 1038.94 1475.96 1144.74 1458.36 1256.46 1403.63 C 1277.92 1391.81 1298.33 1378.17 1317.47 1362.87 C 1347.76 1338.88 1367.19 1308.7 1409.86 1301.87 C 1439.9 1296.76 1467.03 1307.95 1491.21 1325.11 C 1516.19 1342.84 1517.98 1357.65 1499 1381.65 C 1405.48 1499.88 1268.85 1578.05 1118.95 1596.5 C 968.209 1613.88 816.749 1570.55 698.013 1476.07 C 562.38 1369.92 479.486 1197.01 481.191 1025.28 C 481.25 1019.34 481.438 1013.37 481.629 1007.43 C 485.222 883.176 529.206 763.473 606.92 666.451 C 683.189 570.173 788.899 501.533 907.878 471.032 C 948.525 460.649 977.423 457.124 1018.65 452.391 z"/>
<path transform="translate(0,0)" fill="rgb(0,0,0)" d="M 1038.78 652.408 C 1053.65 650.392 1084.02 652.775 1099.82 654.657 C 1179.96 664.201 1276.01 711.381 1328.03 773.729 C 1331.6 778.006 1337.6 784.922 1336.13 790.231 C 1332.39 803.703 1310.69 821.818 1299.81 829.143 C 1218.72 883.74 1172.83 810.935 1101.54 797.203 C 1039.81 784.901 975.728 797.786 923.552 832.991 C 817.02 906.067 788.646 1051.78 860.916 1158.64 C 918.467 1243.74 1025.08 1283.31 1123.29 1251.41 C 1178.3 1233.54 1196.45 1193.79 1260.45 1205.4 C 1284.56 1211 1329.39 1235.86 1336.11 1261.48 C 1331.72 1279.24 1307.46 1300.13 1293.33 1312.31 C 1234.98 1362.53 1162.49 1393.41 1085.85 1400.68 C 988.134 1408.96 891.075 1378.55 815.55 1315.99 C 750.002 1260.93 704.858 1185.43 687.365 1101.63 C 679.79 1064.75 678.098 1026.02 682.168 988.697 C 689.632 914.125 719.152 843.469 766.959 785.752 C 840.23 697.95 927.529 662.347 1038.78 652.408 z"/>
</svg>